<?xml version="1.0" encoding="iso-8859-1"?>
<!-- Generator: Adobe Illustrator 19.0.0, SVG Export Plug-In . SVG Version: 6.00 Build 0)  -->
<svg version="1.1" id="Capa_1" xmlns="http://www.w3.org/2000/svg" xmlns:xlink="http://www.w3.org/1999/xlink" x="0px" y="0px"
	 viewBox="0 0 512.001 512.001" style="enable-background:new 0 0 512.001 512.001;" xml:space="preserve">
<path style="fill:#EDE9E8;" d="M436.026,391.984L75.975,406.986c-8.402,0-30.004-21.604-30.004-30.004
	c0-8.402,21.602-30.004,30.004-30.004l360.051,15.002c-8.402,0-15.002,6.6-15.002,15.002
	C421.024,385.382,427.624,391.984,436.026,391.984z"/>
<path style="fill:#DFD7D5;" d="M436.026,391.984l-180.025,7.501v-45.006l180.025,7.501c-8.402,0-15.002,6.6-15.002,15.002
	C421.024,385.382,427.624,391.984,436.026,391.984z"/>
<path style="fill:#EDE9E8;" d="M466.03,466.995c0,8.4-21.602,30.004-30.004,30.004L75.975,481.997
	c8.402,0,15.002-6.602,15.002-15.002c0-8.402-6.6-15.002-15.002-15.002l360.051-15.002
	C444.428,436.991,466.03,458.593,466.03,466.995z"/>
<path style="fill:#DFD7D5;" d="M466.03,466.995c0,8.4-21.602,30.004-30.004,30.004l-180.025-7.501v-45.006l180.025-7.501
	C444.428,436.991,466.03,458.593,466.03,466.995z"/>
<path style="fill:#FF7816;" d="M481.032,466.995c0,24.902-20.102,45.006-45.006,45.006H75.975c-8.402,0-15.002-6.602-15.002-15.002
	c0-8.402,6.6-15.002,15.002-15.002h360.051c8.402,0,15.002-6.602,15.002-15.002c0-8.402-6.6-15.002-15.002-15.002H75.975
	c-8.402,0-15.002-6.602-15.002-15.002c0-8.402,6.6-15.002,15.002-15.002h360.051C460.93,421.989,481.032,442.091,481.032,466.995z"
	/>
<path style="fill:#FF4B00;" d="M481.032,466.995c0,24.902-20.102,45.006-45.006,45.006H256.001v-30.004h180.025
	c8.402,0,15.002-6.602,15.002-15.002c0-8.402-6.6-15.002-15.002-15.002H256.001v-30.004h180.025
	C460.93,421.989,481.032,442.091,481.032,466.995z"/>
<path style="fill:#804231;" d="M451.028,406.986c0,8.4-6.6,15.002-15.002,15.002H75.975c-24.905,0-45.006-20.104-45.006-45.006
	c0-24.905,20.102-45.006,45.006-45.006h360.051c8.402,0,15.002,6.6,15.002,15.002c0,8.4-6.6,15.002-15.002,15.002H75.975
	c-8.402,0-15.002,6.6-15.002,15.002c0,8.4,6.6,15.002,15.002,15.002h360.051C444.428,391.984,451.028,398.584,451.028,406.986z"/>
<g>
	<path style="fill:#663325;" d="M451.028,406.986c0,8.4-6.6,15.002-15.002,15.002H256.001v-30.004h180.025
		C444.428,391.984,451.028,398.584,451.028,406.986z"/>
	<path style="fill:#663325;" d="M436.026,361.98H256.001v-30.004h180.025c8.402,0,15.002,6.6,15.002,15.002
		C451.028,355.378,444.428,361.98,436.026,361.98z"/>
</g>
<g>
	<path style="fill:#FFCEBF;" d="M175.086,119.393c-15.28-7.56-24.407-20.892-24.407-35.689s9.127-29.129,24.407-36.689
		c4.835-2.388,7.706-6.67,7.706-9.79c0-3.105-2.871-6.388-7.691-8.775c-7.428-3.663-10.489-12.658-6.813-20.086
		c3.648-7.428,12.702-10.475,20.086-6.813c15.295,7.545,24.422,20.892,24.422,35.674c0,14.797-9.127,30.144-24.422,37.689
		c-4.806,2.388-7.691,5.67-7.691,8.79c0,3.12,2.886,6.402,7.706,8.79c7.428,3.678,10.475,12.673,6.798,20.101
		C191.536,120,182.533,123.067,175.086,119.393z"/>
	<path style="fill:#FFCEBF;" d="M256.001,82.54c-0.3,0.3-0.3,0.901-0.3,1.201c0,0.3,0,0.899,0.3,1.199
		c0.601,2.701,3.3,5.401,7.501,7.501c7.201,3.601,10.5,12.601,6.6,20.102c-2.699,5.701-8.4,8.702-14.101,8.402
		c-1.8,0-4.201-0.601-6.001-1.5c-15.302-7.501-24.303-21.003-24.303-35.705S234.698,54.536,250,47.035
		c2.701-1.199,4.502-2.701,6.001-4.502c1.199-1.199,1.8-2.699,1.8-4.2c0-1.501-0.601-4.002-1.8-5.201
		c-1.199-1.8-3.3-3.601-6.001-4.802c-7.201-3.601-10.5-12.601-6.6-20.102c2.699-4.8,7.201-7.801,12.601-8.102
		c2.401,0,5.1,0.3,7.501,1.501c15.302,7.501,24.303,21.703,24.303,36.705c0,14.702-9.001,28.904-24.303,36.703
		C259.301,77.14,256.602,79.84,256.001,82.54z"/>
</g>
<path style="fill:#FFBFAB;" d="M325.107,119.393c-15.28-7.56-24.407-20.892-24.407-35.689s9.127-29.129,24.407-36.689
	c4.835-2.388,7.706-6.67,7.706-9.79c0-3.105-2.871-6.388-7.691-8.775c-7.428-3.663-10.49-12.658-6.813-20.086
	c3.663-7.428,12.717-10.475,20.086-6.813c15.295,7.545,24.422,20.892,24.422,35.674c0,14.797-9.127,30.144-24.422,37.689
	c-4.806,2.388-7.691,5.67-7.691,8.79c0,3.12,2.886,6.402,7.706,8.79c7.428,3.678,10.475,12.673,6.798,20.101
	C341.557,120,332.554,123.067,325.107,119.393z"/>
<path style="fill:#EDE9E8;" d="M346.013,150.95H165.988c-8.402,0-15.002,6.6-15.002,15.002v90.013
	c0,41.406,33.605,76.011,75.011,76.011h60.008c41.406,0,75.011-34.605,75.011-76.011v-90.013
	C361.015,157.55,354.415,150.95,346.013,150.95z"/>
<path style="fill:#D2C5C2;" d="M361.015,270.967h-15.002c-8.292,0-15.002-6.71-15.002-15.002c0-8.292,6.71-15.002,15.002-15.002
	h15.002c16.54,0,30.004-13.464,30.004-30.004s-13.464-30.004-30.004-30.004h-15.002c-8.292,0-15.002-6.71-15.002-15.002
	c0-8.292,6.71-15.002,15.002-15.002h15.002c33.096,0,60.008,26.913,60.008,60.008S394.111,270.967,361.015,270.967z"/>
<g>
	<path style="fill:#FFBFAB;" d="M287.805,38.336c0,14.702-9.001,28.904-24.303,36.703c-4.201,2.1-6.9,4.802-7.501,7.501V42.534
		c1.199-1.199,1.8-2.699,1.8-4.2c0-1.501-0.601-4.002-1.8-5.201V0.129c2.401,0,5.1,0.3,7.501,1.501
		C278.804,9.131,287.805,23.333,287.805,38.336z"/>
	<path style="fill:#FFBFAB;" d="M256.001,120.946V84.941c0.601,2.701,3.3,5.401,7.501,7.501c7.201,3.601,10.5,12.601,6.6,20.102
		C267.402,118.245,261.701,121.247,256.001,120.946z"/>
</g>
<path style="fill:#DFD7D5;" d="M286.005,331.976h-30.004V150.95h90.013c8.402,0,15.002,6.6,15.002,15.002v90.013
	C361.015,297.371,327.411,331.976,286.005,331.976z"/>
<path style="fill:#FDBF00;" d="M361.015,331.976v105.015c0,6.001-3.601,11.402-9.301,13.801c-5.401,2.401-12.003,1.201-16.201-3.3
	l-19.504-19.203l-19.504,19.203c-4.2,4.502-10.5,5.701-16.201,3.3c-5.701-2.399-9.301-7.799-9.301-13.801V331.976H361.015z"/>
<path style="fill:#FF9F00;" d="M361.015,331.976v105.015c0,6.001-3.601,11.402-9.301,13.801c-5.401,2.401-12.003,1.201-16.201-3.3
	l-19.504-19.203v-96.313H361.015z"/>
<g>
</g>
<g>
</g>
<g>
</g>
<g>
</g>
<g>
</g>
<g>
</g>
<g>
</g>
<g>
</g>
<g>
</g>
<g>
</g>
<g>
</g>
<g>
</g>
<g>
</g>
<g>
</g>
<g>
</g>
</svg>
